<svg width="365" height="413" viewBox="0 0 365 413" fill="none" xmlns="http://www.w3.org/2000/svg">
<ellipse cx="182.5" cy="236.5" rx="182.5" ry="176.5" fill="#8F06FB"/>
<ellipse cx="182.5" cy="236.5" rx="182.5" ry="176.5" fill="url(#paint0_linear)"/>
<path d="M211.766 271.008V344.506L189.952 395.5L254.732 375.401L211.766 271.008Z" fill="#ED6262"/>
<rect x="208.171" y="363.024" width="17.207" height="24.8983" fill="#9E8686" fill-opacity="0.8"/>
<rect x="217.281" y="315.392" width="18.2192" height="23.8158" fill="#473C3C" fill-opacity="0.65"/>
<path d="M227.667 309.922L233.586 380.579" stroke="#FFFEFE" stroke-width="1.5"/>
<path d="M217.682 331.614L223.354 380.421" stroke="black" stroke-width="1.5"/>
<path d="M197.037 377.097L247.646 381.427" stroke="black" stroke-width="2.5"/>
<path d="M189.952 390.087L235.5 321.888" stroke="#FDF8F8" stroke-width="2.5"/>
<path d="M205.135 356.529L256.756 360.859" stroke="black" stroke-width="2.5"/>
<path d="M213.232 327.3L241.573 341.373" stroke="black" stroke-width="1.5"/>
<path d="M217.281 302.402L241.573 331.63" stroke="black" stroke-width="1.5"/>
<path d="M159.5 279.627V353.999L177.366 404.119L110.562 396.035L159.5 279.627Z" fill="#ED6262"/>
<rect x="118.308" y="333.385" width="29.0451" height="38.6678" fill="#806565" fill-opacity="0.65"/>
<path d="M118.308 363.565L157.034 348.475" stroke="black" stroke-width="2"/>
<path d="M124.117 352.247L151.225 343.759" stroke="black"/>
<path d="M131.862 337.157L148.321 324.897" stroke="black" stroke-width="1.5"/>
<path d="M110.562 381.484L164.78 364.508" stroke="#FFFDFD" stroke-width="1.5"/>
<path d="M124.117 396.574L173.493 380.541" stroke="black" stroke-width="1.5"/>
<rect x="139.607" y="362.621" width="23.2361" height="41.4972" fill="#453838" fill-opacity="0.65"/>
<path d="M148.321 304.148L131.862 401.289" stroke="#FFF0F0" stroke-width="2.5"/>
<path d="M138.201 323.068L126.208 403.923" stroke="black" stroke-width="1.5"/>
<path d="M157.367 352.172L142.874 403.869" stroke="black" stroke-width="1.5"/>
<path d="M122.041 358.512L121.208 399.414" stroke="black" stroke-width="2.5"/>
<path d="M202 289.845C202 301.233 216.474 297.379 216.474 318C223.595 318 227 304.009 227 292.621C227 281.232 221.227 272 214.105 272C206.984 272 202 278.456 202 289.845Z" fill="#1C1514"/>
<rect x="155.098" y="316.017" width="59.0584" height="45.0085" rx="22.5042" fill="#B08871"/>
<rect x="154.13" y="233.661" width="59.0584" height="118.746" rx="29.5292" fill="#DBB39C"/>
<rect x="151.225" y="244.195" width="64.8674" height="55.5424" rx="27.7712" fill="#B08871"/>
<ellipse cx="184.627" cy="146.996" rx="120.537" ry="139.335" fill="#DBB39C"/>
<rect x="55.3766" y="146.517" width="16.4589" height="45.0085" rx="8.22944" fill="#DBB39C"/>
<rect x="296.451" y="146.517" width="16.4589" height="45.0085" rx="8.22944" fill="#DBB39C"/>
<ellipse cx="184.143" cy="209.72" rx="12.5862" ry="4.78814" fill="#B08871"/>
<path d="M178.108 24.6551C160.804 58.1759 69.9301 75.564 58.9897 159.197C58.9897 159.197 64.5998 188.591 58.1768 145.58C34.1877 95.4002 84.809 24.5798 128.747 8.51351C178.108 -9.53601 211.245 3.61522 178.108 24.6551Z" fill="#1C1514"/>
<path d="M187.94 32.0167C205.244 65.5374 295.642 64.6773 306.583 148.31C330.572 98.1305 269.777 17.5704 224.409 5.73199C178.108 -6.34999 154.802 10.9768 187.94 32.0167Z" fill="#1C1514"/>
<path d="M204.475 266.299C201.985 270.818 193.272 272.323 184.143 279.627C173.77 273.397 169.621 271.463 163.812 266.299C163.812 260.481 172.685 258.559 184.143 258.559C195.601 258.559 204.475 260.929 204.475 266.299Z" fill="#1C1514"/>
<path d="M222.87 242.87C222.87 249.398 203.461 234.719 182.621 234.719C161.782 234.719 141.534 251.021 143.63 242.87C145.726 234.719 161.782 226.958 182.621 226.958C203.461 226.958 219.097 234.719 222.87 242.87Z" fill="#1C1514"/>
<rect x="62.1539" y="116.831" width="115.212" height="83.3136" rx="40" stroke="black" stroke-width="10" stroke-linejoin="round"/>
<rect x="188.016" y="116.831" width="115.212" height="83.3136" rx="40" stroke="black" stroke-width="10" stroke-linejoin="round"/>
<path d="M273.215 161.592C273.215 167.776 258.776 153.87 243.274 153.87C227.771 153.87 212.709 169.314 214.268 161.592C215.827 153.87 227.771 146.517 243.274 146.517C258.776 146.517 270.408 153.87 273.215 161.592Z" fill="#621B04"/>
<path d="M159.939 164.345C159.939 170.872 145.264 156.194 129.507 156.194C113.75 156.194 98.4407 172.496 100.026 164.345C101.611 156.194 113.75 148.432 129.507 148.432C145.264 148.432 157.086 156.194 159.939 164.345Z" fill="#621B04"/>
<defs>
<linearGradient id="paint0_linear" x1="416.797" y1="133.661" x2="58.1785" y2="364.756" gradientUnits="userSpaceOnUse">
<stop stop-color="#0B76F3"/>
<stop offset="1" stop-color="white" stop-opacity="0"/>
</linearGradient>
</defs>
</svg>
